JUST TEENS PORN BRIDE DISSOLUTE SILVERDUST{HKRG}

Format                           : Windows Media
File size                        : 544 MiB
Duration                         : 24mn 27s
Overall bit rate mode            : Variable
Overall bit rate                 : 3 107 Kbps
Maximum Overall bit rate         : 6 122 Kbps
Encoded date                     : UTC 2008-03-12 00:56:31.781 
http://img2.immage.de/1203d60image49524140.jpg 
http://img3.immage.de/1203c5189image49529671.jpg
[img]http://img2.immage.de/1203d60image49524140.jpg[/img]



[img]http://img3.immage.de/1203c5189image49529671.jpg[/img]
 
http://www.leetleech.org/images/48205041759771714593.jpg
    	http://www.leetleech.org/images/57089571182802069142.png
    	http://www.leetleech.org/images/72487845618660865516.png
    	http://www.leetleech.org/images/19130598637696008497.png
Video
ID                               : 2
Format                           : VC-1
Format profile                   : MP@ML
Codec ID                         : WMV3
Codec ID/Info                    : Windows Media Video 9
Codec ID/Hint                    : WMV3
Description of the codec         : Windows Media Video 9 - Professional
Duration                         : 24mn 27s
Bit rate mode                    : Variable
Bit rate                         : 3 000 Kbps
Width                            : 720 pixels
Height                           : 576 pixels
Display aspect ratio             : 4:3
Frame rate                       : 25.000 fps
Standard                         : PAL
Bit depth                        : 8 bits
Scan type                        : Progressive
Compression mode                 : Lossy
Bits/(Pixel*Frame)               : 0.289
Stream size                      : 525 MiB (97%)

Audio
ID                               : 1
Format                           : WMA
Format version                   : Version 2
Codec ID                         : 161
Codec ID/Info                    : Windows Media Audio
Description of the codec         : Windows Media Audio 9.2 -  96 kbps, 44 kHz, stereo 2-pass CBR
Duration                         : 24mn 27s
Bit rate mode                    : Constant
Bit rate                         : 96.0 Kbps
Channel(s)                       : 2 channels
Sampling rate                    : 44.1 KHz
Bit depth                        : 16 bits
Stream size                      : 16.8 MiB (3%)

NJOI